<?xml version="1.0" encoding="UTF-8"?>
<svg id="Layer_1" data-name="Layer 1" xmlns="http://www.w3.org/2000/svg" viewBox="0 0 255.25 114.73">
  <defs>
    <style>
      .cls-1 {
        fill: #fff;
      }
    </style>
  </defs>
  <path class="cls-1" d="M228.37,0c14.21,1.7,25.6,13.12,26.86,27.43v59.64c-1.14,14.61-13.06,26.51-27.69,27.66h-113.25c-12.44-1-23.46-9.95-26.67-21.99-2.13-8-.52-17.19-1.03-25.44h11.99v7.66h144.65v-35.69h-62.61c-.33-9.01,1.21-18.28-2.28-26.82-2.03-4.97-5.5-8.73-9.23-12.46h59.25ZM215.36,13.24c-7.7,1.1-6.5,13.28,1.83,12.36s6.75-13.58-1.83-12.36ZM129,89.4c-7.7,1.1-6.5,13.28,1.83,12.36s6.75-13.58-1.83-12.36ZM172.18,89.4c-7.7,1.1-6.5,13.28,1.83,12.36s6.75-13.58-1.83-12.36ZM215.36,89.4c-7.7,1.1-6.5,13.28,1.83,12.36s6.75-13.58-1.83-12.36Z"/>
  <path class="cls-1" d="M141.77,0c1.6.41,3.24.6,4.85,1.03,8.39,2.23,16.01,8.76,19.49,16.7,4.31,9.83,1.91,21.14,2.53,31.61h-11.99v-10.06H11.99v35.69h62.61c.36,9.19-1.27,18.59,2.28,27.3,2.03,4.97,5.49,8.73,9.23,12.46H27.7c-12.38-.98-23.34-9.84-26.62-21.79-.46-1.66-.67-3.36-1.08-5.03V26.82C1.48,14.73,10.06,4.38,21.83,1.08l5.04-1.08h114.91ZM42.4,13.24c-7.7,1.1-6.5,13.28,1.83,12.36s6.75-13.58-1.83-12.36ZM85.58,13.24c-7.7,1.1-6.5,13.28,1.83,12.36s6.75-13.58-1.83-12.36ZM128.76,13.24c-7.7,1.1-6.5,13.28,1.83,12.36s6.75-13.58-1.83-12.36ZM42.4,89.4c-7.7,1.1-6.5,13.28,1.83,12.36s6.75-13.58-1.83-12.36Z"/>
</svg>