<?xml version="1.0" encoding="UTF-8"?>
<svg id="Layer_1" data-name="Layer 1" xmlns="http://www.w3.org/2000/svg" viewBox="0 0 519.2 114.73">
  <defs>
    <style>
      .cls-1 {
        fill: #fff;
      }
    </style>
  </defs>
  <path class="cls-1" d="M228.37,0c14.21,1.7,25.6,13.12,26.86,27.43v59.64c-1.14,14.61-13.06,26.51-27.69,27.66h-113.25c-12.44-1-23.46-9.95-26.67-21.99-2.13-8-.52-17.19-1.03-25.44h11.99v7.66h144.65v-35.69h-62.61c-.33-9.01,1.21-18.28-2.28-26.82-2.03-4.97-5.5-8.73-9.23-12.46h59.25ZM215.36,13.24c-7.7,1.1-6.5,13.28,1.83,12.36s6.75-13.58-1.83-12.36ZM129,89.4c-7.7,1.1-6.5,13.28,1.83,12.36s6.75-13.58-1.83-12.36ZM172.18,89.4c-7.7,1.1-6.5,13.28,1.83,12.36s6.75-13.58-1.83-12.36ZM215.36,89.4c-7.7,1.1-6.5,13.28,1.83,12.36s6.75-13.58-1.83-12.36Z"/>
  <path class="cls-1" d="M141.77,0c1.6.41,3.24.6,4.85,1.03,8.39,2.23,16.01,8.76,19.49,16.7,4.31,9.83,1.91,21.14,2.53,31.61h-11.99v-10.06H11.99v35.69h62.61c.36,9.19-1.27,18.59,2.28,27.3,2.03,4.97,5.49,8.73,9.23,12.46H27.7c-12.38-.98-23.34-9.84-26.62-21.79-.46-1.66-.67-3.36-1.08-5.03V26.82C1.48,14.73,10.06,4.38,21.83,1.08l5.04-1.08h114.91ZM42.4,13.24c-7.7,1.1-6.5,13.28,1.83,12.36s6.75-13.58-1.83-12.36ZM85.58,13.24c-7.7,1.1-6.5,13.28,1.83,12.36s6.75-13.58-1.83-12.36ZM128.76,13.24c-7.7,1.1-6.5,13.28,1.83,12.36s6.75-13.58-1.83-12.36ZM42.4,89.4c-7.7,1.1-6.5,13.28,1.83,12.36s6.75-13.58-1.83-12.36Z"/>
  <polygon class="cls-1" points="400.14 35.45 406.01 64.19 411.89 35.45 425.32 35.45 425.32 78.8 417.05 78.8 416.69 78.44 416.69 47.9 409.58 78.81 402.32 78.77 395.34 47.9 395.34 78.44 394.98 78.8 386.7 78.8 386.7 35.45 400.14 35.45"/>
  <path class="cls-1" d="M354.08,57l7.8-11.02h9.36l.24.48-8.98,12.58,10.3,19.76h-9.48l-6.6-12.69c-.34-.07-.31-.05-.5.15-.26.27-2.14,2.66-2.14,2.84v9.34l-.36.36h-8.4l-.36-.36v-42.63l.36-.36h8.4l.36.36v21.2Z"/>
  <path class="cls-1" d="M332.49,78.8v-22.87c0-.1-.29-1.61-.35-1.8-.59-1.97-3.01-2.11-4.69-1.55-2.02.67-2.28,3.43-2.4,5.27-.44,6.82.35,14.1.01,20.97h-8.52l-.36-.36v-32.09l.36-.36h7.92c.71.7.23,1.95.36,2.87,2.94-3.87,10.01-5.05,13.78-1.91,1.43,1.19,2.77,4.04,2.77,5.86v25.63l-.36.36h-8.52Z"/>
  <path class="cls-1" d="M439.43,45.1c9.67-.91,14.08,3.92,14.68,13.22.74,11.55-.74,22.26-14.99,21.19-7.76-.58-10.44-5.93-10.92-13.05-.6-9.06-.05-20.3,11.22-21.36ZM438.84,72.49c1.62,1.58,4.4.84,5.32-1.11,1.48-3.12,1.57-15.32-.16-18.29-1.57-2.71-5.12-1.93-6.15.98-1.15,3.23-1.13,13-.12,16.3.17.55.72,1.74,1.11,2.12Z"/>
  <path class="cls-1" d="M510.48,67.54h7.8c.51,0,.15,2.02.09,2.48-.75,5.48-4.03,9.06-9.67,9.5-10.97.86-14.56-4.22-15.01-14.49-.51-11.42,1.64-20.85,15.25-19.78,4.2.33,7.41,2.8,8.86,6.72.9,2.42,1.63,8.61,1.33,11.15-.04.35-.03.62-.37.83h-15.83c-.53.44-.4,1.39-.37,2.05.14,2.59.52,7.61,4.1,7.42,3.01-.16,3.48-3.48,3.83-5.88ZM502.93,58.44h7.2c.52,0,.14-2.73.06-3.17-.39-2.08-1.23-3.73-3.62-3.68-2.17.04-3.28,1.75-3.7,3.68-.12.55-.5,3,.06,3.18Z"/>
  <polygon class="cls-1" points="286.43 71.13 301.42 71.13 301.78 71.49 301.78 78.44 301.42 78.8 277.43 78.8 277.07 78.44 277.07 35.81 277.43 35.45 286.07 35.45 286.43 35.81 286.43 71.13"/>
  <path class="cls-1" d="M476.66,45.98l4.2,21.56,4.2-21.56h8.88l-8.14,32.71c-.39.27-8.53.24-9.5.12-.26-.03-.54.02-.71-.25l-8.27-32.58h9.36Z"/>
  <polygon class="cls-1" points="303.82 45.98 312.22 45.98 312.58 46.34 312.58 78.44 312.22 78.8 303.82 78.8 303.46 78.44 303.46 46.34 303.82 45.98"/>
  <polygon class="cls-1" points="457.11 45.98 465.5 45.98 465.86 46.34 465.86 78.44 465.5 78.8 457.11 78.8 456.75 78.44 456.75 46.34 457.11 45.98"/>
  <polygon class="cls-1" points="374.11 68.98 382.02 68.98 382.38 69.34 382.38 78.44 382.02 78.8 374.11 78.8 373.75 78.44 373.75 69.34 374.11 68.98"/>
  <polygon class="cls-1" points="303.82 34.97 312.22 34.97 312.58 35.33 312.58 42.27 312.22 42.63 303.82 42.63 303.46 42.27 303.46 35.33 303.82 34.97"/>
  <polygon class="cls-1" points="457.11 34.97 465.5 34.97 465.86 35.33 465.86 42.27 465.5 42.63 457.11 42.63 456.75 42.27 456.75 35.33 457.11 34.97"/>
</svg>